<svg width="179" height="179" viewBox="0 0 179 179" fill="none" xmlns="http://www.w3.org/2000/svg">
<path fill-rule="evenodd" clip-rule="evenodd" d="M89.5 134.25C90.9835 134.25 92.4063 133.661 93.4554 132.612C94.5044 131.563 95.0937 130.14 95.0937 128.656V63.847L119.102 87.8666C119.622 88.3867 120.24 88.7993 120.919 89.0807C121.599 89.3622 122.327 89.5071 123.062 89.5071C123.798 89.5071 124.526 89.3622 125.206 89.0807C125.885 88.7993 126.503 88.3867 127.023 87.8666C127.543 87.3465 127.956 86.7291 128.237 86.0496C128.518 85.3701 128.663 84.6417 128.663 83.9062C128.663 83.1707 128.518 82.4424 128.237 81.7629C127.956 81.0834 127.543 80.4659 127.023 79.9459L93.4604 46.3834C92.9408 45.8624 92.3235 45.4491 91.6439 45.1671C90.9643 44.8851 90.2358 44.74 89.5 44.74C88.7642 44.74 88.0357 44.8851 87.3561 45.1671C86.6765 45.4491 86.0592 45.8624 85.5396 46.3834L51.9771 79.9459C50.9268 80.9962 50.3367 82.4208 50.3367 83.9062C50.3367 85.3917 50.9268 86.8163 51.9771 87.8666C53.0275 88.917 54.4521 89.5071 55.9375 89.5071C57.4229 89.5071 58.8475 88.917 59.8979 87.8666L83.9062 63.847V128.656C83.9062 130.14 84.4956 131.563 85.5446 132.612C86.5936 133.661 88.0164 134.25 89.5 134.25Z" fill="white"/>
</svg>
